<!-- Generated by IcoMoon.io -->
<svg version="1.1" xmlns="http://www.w3.org/2000/svg" width="32" height="32" viewBox="0 0 32 32">
<title>Lens-free-icon</title>
<path fill="#7D72F0" d="M31.24 11.13c-0.089-0.276-0.345-0.464-0.635-0.464h-8.82c-0.238 0-0.46 0.128-0.578 0.335s-0.119 0.462 0.003 0.668l7.331 12.581c0.119 0.203 0.335 0.329 0.57 0.331 0.001 0 0.004 0 0.005 0 0.233 0 0.449-0.122 0.57-0.322 1.514-2.505 2.315-5.36 2.315-8.259 0-1.655-0.256-3.293-0.76-4.87zM14.286 8.999c0.12 0.206 0.34 0.334 0.578 0.334h14.603c0.236 0 0.453-0.124 0.573-0.326 0.121-0.203 0.125-0.453 0.012-0.659-2.221-4.074-6.091-6.978-10.617-7.969-0.289-0.061-0.576 0.066-0.72 0.316l-4.427 7.637c-0.12 0.206-0.12 0.461-0.001 0.667zM23.523 18.292c-0.119-0.205-0.339-0.331-0.576-0.331 0 0 0 0-0.001 0-0.237 0-0.456 0.127-0.576 0.332l-7.355 12.686c-0.117 0.204-0.12 0.454-0.005 0.659s0.328 0.335 0.563 0.342l0.15 0.008c0.091 0.006 0.184 0.012 0.277 0.012 4.513 0 8.844-1.936 11.881-5.31 0.193-0.215 0.225-0.531 0.079-0.781l-4.438-7.617zM10.809 21.001c0.12-0.206 0.12-0.46 0.001-0.666l-7.284-12.684c-0.117-0.204-0.333-0.331-0.568-0.335-0.244-0.030-0.456 0.116-0.578 0.317-1.557 2.529-2.38 5.422-2.38 8.367 0 1.655 0.257 3.293 0.76 4.87 0.089 0.276 0.345 0.464 0.635 0.464h8.836c0.238-0 0.458-0.127 0.577-0.333zM17.714 23.001c-0.12-0.206-0.34-0.334-0.578-0.334h-14.603c-0.236 0-0.453 0.124-0.573 0.326-0.121 0.203-0.125 0.453-0.012 0.66 2.221 4.074 6.091 6.978 10.617 7.969 0.048 0.010 0.096 0.016 0.143 0.016 0.234 0 0.456-0.124 0.577-0.332l4.427-7.637c0.12-0.206 0.12-0.461 0.001-0.667zM8.508 13.648c0.118 0.206 0.339 0.334 0.577 0.335h0.001c0.238 0 0.457-0.126 0.577-0.332l7.322-12.629c0.117-0.204 0.12-0.454 0.005-0.659s-0.328-0.335-0.563-0.342l-0.15-0.008c-0.091-0.006-0.184-0.012-0.277-0.012-4.466 0-8.766 1.902-11.798 5.218-0.195 0.214-0.231 0.53-0.086 0.782l4.392 7.648z"></path>
</svg>
