<svg xmlns="http://www.w3.org/2000/svg" width="297" height="187" viewBox="0 0 297 187">
  <g fill="none" fill-rule="evenodd" font-family="Impact" font-style="condensed" font-weight="700" transform="translate(-1 -1)">
    <text fill="#726BFF" fill-opacity=".7" font-size="15.705">
      <tspan x="145.502" y="81.961">Data</tspan>
    </text>
    <text fill="#726BFF" font-size="31.731" transform="rotate(30 114.875 73.02)">
      <tspan x="52.405" y="85.52">Exchange</tspan>
    </text>
    <text fill="#726BFF" font-size="24.679" transform="rotate(60 127.55 126.135)">
      <tspan x="91.095" y="136.135">Bancor</tspan>
    </text>
    <text fill="#726BFF" font-size="23.718">
      <tspan x="143.093" y="129.788">Token Sale</tspan>
    </text>
    <text fill="#726BFF" fill-opacity=".7" font-size="15.064" transform="rotate(-60 45.475 50.388)">
      <tspan x="9.823" y="56.388">ICO Wallets</tspan>
    </text>
    <text fill="#726BFF" font-size="19.551" transform="rotate(60 181.583 64.253)">
      <tspan x="153.801" y="72.253">Mining</tspan>
    </text>
    <text fill="#726BFF" font-size="18.59" transform="rotate(-30 231.708 146.229)">
      <tspan x="190.436" y="153.729">Etheremon</tspan>
    </text>
    <text fill="#726BFF" font-size="18.59" transform="rotate(-60 224.164 65.448)">
      <tspan x="172.453" y="72.948">0x Ecosystem</tspan>
    </text>
    <text fill="#726BFF" fill-opacity=".7" font-size="17.628" transform="rotate(-30 148.914 52.802)">
      <tspan x="135.585" y="59.802">Dex</tspan>
    </text>
    <text fill="#726BFF" font-size="16.987" transform="rotate(-30 77.683 115.235)">
      <tspan x="50.865" y="121.735">Gaming</tspan>
    </text>
    <text fill="#726BFF" fill-opacity=".7" font-size="16.987" transform="rotate(-30 245.983 87.613)">
      <tspan x="212.419" y="94.113">Gambling</tspan>
    </text>
    <text fill="#726BFF" font-size="16.987" transform="rotate(30 99.623 147.353)">
      <tspan x="69.271" y="153.853">Payment</tspan>
    </text>
    <text fill="#726BFF" fill-opacity=".7" font-size="16.346" transform="rotate(30 172.389 147.364)">
      <tspan x="150.066" y="153.864">Others</tspan>
    </text>
    <text fill="#726BFF" font-size="16.346" transform="rotate(-60 59.57 92.07)">
      <tspan x="30.663" y="98.57">Platform</tspan>
    </text>
    <text fill="#726BFF" fill-opacity=".4" font-size="16.026">
      <tspan x="30.68" y="173.498">Spam Token</tspan>
    </text>
    <text fill="#726BFF" fill-opacity=".4" font-size="16.026" transform="rotate(60 195.184 56.58)">
      <tspan x="169.811" y="63.079">Trading</tspan>
    </text>
    <text fill="#726BFF" fill-opacity=".7" font-size="16.026" transform="rotate(30 204.667 30.411)">
      <tspan x="178.652" y="36.911">Finance</tspan>
    </text>
    <text fill="#726BFF" font-size="16.026" transform="rotate(-60 34.474 139.123)">
      <tspan x="13.758" y="145.623">Social</tspan>
    </text>
    <text fill="#726BFF" fill-opacity=".7" font-size="15.064" transform="rotate(-30 37.428 89.589)">
      <tspan x="15.427" y="95.589">Donate</tspan>
    </text>
    <text fill="#726BFF" fill-opacity=".4" font-size="14.423" transform="rotate(-60 81.682 88.93)">
      <tspan x="67.389" y="94.929">dYdX</tspan>
    </text>
    <text fill="#726BFF" fill-opacity=".7" font-size="14.423" transform="rotate(-60 29.008 48.46)">
      <tspan x="-4.555" y="54.46">Blockchain</tspan>
    </text>
    <text fill="#726BFF" fill-opacity=".7" font-size="14.103">
      <tspan x="41.6" y="154.797">Energy</tspan>
    </text>
    <text fill="#726BFF" fill-opacity=".7" font-size="13.782" transform="rotate(-30 89.21 17.039)">
      <tspan x="71.544" y="22.539">Melon</tspan>
    </text>
    <text fill="#726BFF" fill-opacity=".7" font-size="13.782" transform="rotate(-30 243.698 156.11)">
      <tspan x="213.186" y="161.611">Wallet App</tspan>
    </text>
    <text fill="#726BFF" fill-opacity=".7" font-size="13.462" transform="rotate(60 179.372 98.475)">
      <tspan x="166.043" y="103.975">Fund</tspan>
    </text>
    <text fill="#726BFF" fill-opacity=".7" font-size="13.141" transform="rotate(-30 257.901 97.137)">
      <tspan x="236.864" y="102.137">Identity</tspan>
    </text>
    <text fill="#726BFF" fill-opacity=".7" font-size="13.141">
      <tspan x="250.85" y="119.109">Maker</tspan>
    </text>
    <text fill="#726BFF" fill-opacity=".7" font-size="12.821" transform="rotate(-30 207.636 142.38)">
      <tspan x="189.489" y="147.38">Mobile</tspan>
    </text>
    <text fill="#726BFF" fill-opacity=".7" font-size="12.821">
      <tspan x="117.72" y="21.791">Real Estate</tspan>
    </text>
    <text fill="#726BFF" fill-opacity=".2" font-size="12.5">
      <tspan x="129.764" y="48.77">IoT</tspan>
    </text>
    <text fill="#726BFF" fill-opacity=".4" font-size="12.5" transform="rotate(30 130.1 64.611)">
      <tspan x="115.005" y="69.611">Loans</tspan>
    </text>
    <text fill="#726BFF" fill-opacity=".4" font-size="12.5" transform="rotate(-30 252.762 166.747)">
      <tspan x="236.703" y="171.747">Travel</tspan>
    </text>
    <text fill="#726BFF" fill-opacity=".7" font-size="11.859">
      <tspan x="270.924" y="107.831">Heist</tspan>
    </text>
    <text fill="#726BFF" fill-opacity=".4" font-size="11.538" transform="rotate(30 186.325 137.81)">
      <tspan x="179.902" y="142.809">HR</tspan>
    </text>
    <text fill="#726BFF" fill-opacity=".4" font-size="11.538" transform="rotate(30 281.074 159.97)">
      <tspan x="267.102" y="164.971">Retail</tspan>
    </text>
    <text fill="#726BFF" fill-opacity=".4" font-size="11.538" transform="rotate(-60 270.987 51.475)">
      <tspan x="252.359" y="56.475">Sharing</tspan>
    </text>
    <text fill="#726BFF" fill-opacity=".2" font-size="10.897" transform="rotate(-60 16.734 16.216)">
      <tspan x="3.084" y="20.716">Music</tspan>
    </text>
    <text fill="#726BFF" fill-opacity=".4" font-size="10.256" transform="rotate(-60 280.87 143.476)">
      <tspan x="273.161" y="147.476">ENS</tspan>
    </text>
    <text fill="#726BFF" fill-opacity=".7" font-size="10.256">
      <tspan x="95.398" y="49.303">Vehicle</tspan>
    </text>
    <text fill="#726BFF" fill-opacity=".4" font-size="10.256" transform="rotate(-60 100.365 124.526)">
      <tspan x="89.445" y="128.526">Zethr</tspan>
    </text>
    <text fill="#726BFF" fill-opacity=".7" font-size="9.615" transform="rotate(60 133.876 111.036)">
      <tspan x="122.314" y="115.036">China</tspan>
    </text>
    <text fill="#726BFF" fill-opacity=".4" font-size="9.615" transform="rotate(60 98.867 88.554)">
      <tspan x="90.998" y="92.554">DAO</tspan>
    </text>
    <text fill="#726BFF" fill-opacity=".4" font-size="9.615" transform="rotate(30 116.808 144.714)">
      <tspan x="107.814" y="148.714">Gold</tspan>
    </text>
    <text fill="#726BFF" fill-opacity=".4" font-size="9.615" transform="rotate(30 86.938 38.082)">
      <tspan x="80.032" y="42.082">NFT</tspan>
    </text>
    <text fill="#726BFF" fill-opacity=".4" font-size="8.654" transform="rotate(-30 125.288 173.059)">
      <tspan x="109.871" y="176.559">Liquidity</tspan>
    </text>
    <text fill="#726BFF" fill-opacity=".4" font-size="8.654" transform="rotate(-30 175.713 173.059)">
      <tspan x="161.581" y="176.559">Storage</tspan>
    </text>
    <text fill="#726BFF" fill-opacity=".2" font-size="7.372" transform="rotate(60 209.027 59.379)">
      <tspan x="201.158" y="61.879">Adult</tspan>
    </text>
    <text fill="#726BFF" fill-opacity=".2" font-size="7.372">
      <tspan x="74.36" y="180.557">Diamonds</tspan>
    </text>
    <text fill="#726BFF" fill-opacity=".2" font-size="7.372" transform="rotate(30 14.94 109.069)">
      <tspan x="4.983" y="111.569">Events</tspan>
    </text>
    <text fill="#726BFF" fill-opacity=".4" font-size="7.372" transform="rotate(60 142.542 130.36)">
      <tspan x="134.352" y="132.86">News</tspan>
    </text>
    <text fill="#726BFF" fill-opacity=".2" font-size="7.372" transform="rotate(60 57.108 70.62)">
      <tspan x="50.042" y="73.12">Rent</tspan>
    </text>
    <text fill="#726BFF" fill-opacity=".2" font-size="7.372" transform="rotate(-30 11.09 93.33)">
      <tspan x=".972" y="95.831">Sports</tspan>
    </text>
    <text fill="#726BFF" fill-opacity=".4" font-size="5.769" transform="rotate(60 288.155 59.36)">
      <tspan x="277.075" y="61.861">Analytics</tspan>
    </text>
    <text fill="#726BFF" fill-opacity=".2" font-size="5.769" transform="rotate(30 160.132 85.826)">
      <tspan x="156.599" y="88.326">Art</tspan>
    </text>
    <text fill="#6B6ECF" font-size="5.769">
      <tspan x="148.714" y="68.428">Beauty</tspan>
    </text>
    <text fill="#726BFF" fill-opacity=".2" font-size="5.769">
      <tspan x="49.148" y="139.088">Charity</tspan>
    </text>
    <text fill="#726BFF" fill-opacity=".2" font-size="5.769">
      <tspan x="130.085" y="181.484">Electronics</tspan>
    </text>
    <text fill="#726BFF" fill-opacity=".2" font-size="5.769" transform="rotate(60 20.29 161.497)">
      <tspan x="8.406" y="163.997">Freelance</tspan>
    </text>
    <text fill="#726BFF" fill-opacity=".2" font-size="5.769" transform="rotate(30 281.54 128.865)">
      <tspan x="269.816" y="131.365">Incubator</tspan>
    </text>
    <text fill="#726BFF" fill-opacity=".2" font-size="5.769" transform="rotate(30 21.06 176.078)">
      <tspan x="7.732" y="178.578">Knowledge</tspan>
    </text>
    <text fill="#726BFF" fill-opacity=".2" font-size="5.769">
      <tspan x="182.92" y="179.557">Logistics</tspan>
    </text>
    <text fill="#726BFF" fill-opacity=".2" font-size="5.769">
      <tspan x="56.214" y="15.112">Oil and Gas</tspan>
    </text>
    <text fill="#726BFF" fill-opacity=".4" font-size="5.769" transform="rotate(60 232.912 75.099)">
      <tspan x="228.255" y="77.599">OTC</tspan>
    </text>
    <text fill="#726BFF" fill-opacity=".4" font-size="5.769" transform="rotate(-30 91.366 119.23)">
      <tspan x="81.249" y="121.729">Security</tspan>
    </text>
    <text fill="#726BFF" fill-opacity=".2" font-size="5.769" transform="rotate(30 173.622 8.421)">
      <tspan x="162.862" y="10.921">Shipping</tspan>
    </text>
    <text fill="#726BFF" fill-opacity=".2" font-size="5.769" transform="rotate(30 184.542 6.815)">
      <tspan x="177.958" y="9.315">Tools</tspan>
    </text>
    <text fill="#726BFF" fill-opacity=".4" font-size="5.769">
      <tspan x="108.406" y="136.519">VPN</tspan>
    </text>
    <text fill="#726BFF" fill-opacity=".4" font-size="5.769" transform="rotate(30 129.62 55.635)">
      <tspan x="126.408" y="58.135">VR</tspan>
    </text>
    <text fill="#726BFF" fill-opacity=".2" font-size="5.769" transform="rotate(60 291.046 29.49)">
      <tspan x="279.484" y="31.991">White Hat</tspan>
    </text>
    <text fill="#726BFF" fill-opacity=".4" font-size="5.769" transform="rotate(-30 227.548 88.396)">
      <tspan x="221.606" y="90.896">Wi-Fi</tspan>
    </text>
    <text fill="#726BFF" fill-opacity=".2" font-size="3.205" transform="rotate(30 165.058 61.058)">
      <tspan x="159.598" y="62.058">Aviation</tspan>
    </text>
    <text fill="#6B6ECF" font-size="3.205">
      <tspan x="188.862" y="95.298">Banking</tspan>
    </text>
    <text fill="#726BFF" fill-opacity=".2" font-size="3.205" transform="rotate(-30 66.849 111.483)">
      <tspan x="57.695" y="112.483">Collaboration</tspan>
    </text>
    <text fill="#726BFF" fill-opacity=".2" font-size="3.205" transform="rotate(-60 106.553 127.986)">
      <tspan x="99.005" y="128.986">Commodity</tspan>
    </text>
    <text fill="#726BFF" fill-opacity=".2" font-size="3.205" transform="rotate(30 62.6 63.306)">
      <tspan x="58.265" y="64.306">Dating</tspan>
    </text>
    <text fill="#726BFF" fill-opacity=".2" font-size="3.205" transform="rotate(-60 242.413 57.005)">
      <tspan x="229.887" y="58.005">Decentralized Web</tspan>
    </text>
    <text fill="#726BFF" fill-opacity=".2" font-size="3.205" transform="rotate(-30 156.459 39.86)">
      <tspan x="152.765" y="40.86">Email</tspan>
    </text>
    <text fill="#726BFF" fill-opacity=".2" font-size="3.205" transform="rotate(-60 89.21 92.014)">
      <tspan x="84.392" y="93.014">Escrow</tspan>
    </text>
    <text fill="#726BFF" fill-opacity=".2" font-size="3.205" transform="rotate(30 173.73 107.63)">
      <tspan x="170.197" y="108.629">Hotel</tspan>
    </text>
    <text fill="#726BFF" fill-opacity=".2" font-size="3.205" transform="rotate(-30 225.192 141.032)">
      <tspan x="213.469" y="142.032">Invoice Financing</tspan>
    </text>
    <text fill="#726BFF" fill-opacity=".2" font-size="3.205" transform="rotate(30 199.745 50.459)">
      <tspan x="196.534" y="51.459">Land</tspan>
    </text>
    <text fill="#726BFF" fill-opacity=".2" font-size="3.205" transform="rotate(60 10.05 119.314)">
      <tspan x=".253" y="120.314">Manufacturing</tspan>
    </text>
    <text fill="#726BFF" fill-opacity=".2" font-size="3.205" transform="rotate(-30 202.709 134.287)">
      <tspan x="195.964" y="135.287">Marketing</tspan>
    </text>
    <text fill="#726BFF" fill-opacity=".2" font-size="3.205">
      <tspan x="107.281" y="40.055">Masternode</tspan>
    </text>
    <text fill="#726BFF" fill-opacity=".2" font-size="3.205" transform="rotate(-30 209.133 179.574)">
      <tspan x="199.337" y="180.574">NetCongestion</tspan>
    </text>
    <text fill="#726BFF" fill-opacity=".2" font-size="3.205" transform="rotate(-30 66.207 105.702)">
      <tspan x="60.104" y="106.702">Off-Chain</tspan>
    </text>
    <text fill="#726BFF" fill-opacity=".2" font-size="3.205" transform="rotate(30 16.672 83.22)">
      <tspan x="5.591" y="84.219">Portfolio Tracker</tspan>
    </text>
    <text fill="#726BFF" fill-opacity=".2" font-size="3.205" transform="rotate(-30 149.393 43.393)">
      <tspan x="146.823" y="44.393">POS</tspan>
    </text>
    <text fill="#726BFF" fill-opacity=".2" font-size="3.205" transform="rotate(-60 167.578 86.554)">
      <tspan x="163.724" y="87.554">Radio</tspan>
    </text>
    <text fill="#726BFF" fill-opacity=".2" font-size="3.205" transform="rotate(30 173.087 134.93)">
      <tspan x="168.751" y="135.93">Rating</tspan>
    </text>
    <text fill="#726BFF" fill-opacity=".2" font-size="3.205" transform="rotate(-60 255.26 35.807)">
      <tspan x="247.552" y="36.807">Remittance</tspan>
    </text>
    <text fill="#726BFF" fill-opacity=".2" font-size="3.205" transform="rotate(-30 62.995 182.143)">
      <tspan x="53.038" y="183.143">Security Token</tspan>
    </text>
    <text fill="#726BFF" fill-opacity=".2" font-size="3.205">
      <tspan x="99.252" y="22.069">Services</tspan>
    </text>
    <text fill="#726BFF" fill-opacity=".2" font-size="3.205" transform="rotate(60 9.407 125.417)">
      <tspan x="3.465" y="126.417">Software</tspan>
    </text>
    <text fill="#726BFF" fill-opacity=".2" font-size="3.205" transform="rotate(30 89.901 154.522)">
      <tspan x="81.39" y="155.522">Surveillance</tspan>
    </text>
    <text fill="#726BFF" fill-opacity=".2" font-size="3.205" transform="rotate(-30 215.877 180.859)">
      <tspan x="205.278" y="181.859">Tokenized Asset</tspan>
    </text>
    <text fill="#726BFF" font-size="15.705">
      <tspan x="94.113" y="36.032">Marketplace</tspan>
    </text>
    <text fill="#726BFF" fill-opacity=".7" font-size="14.103" transform="rotate(-60 262.353 40.663)">
      <tspan x="221.563" y="46.163">Compromised</tspan>
    </text>
    <text fill="#726BFF" fill-opacity=".7" font-size="13.462" transform="rotate(-60 24.592 30.385)">
      <tspan x="-5.439" y="35.885">Stablecoin</tspan>
    </text>
    <text fill="#726BFF" fill-opacity=".4" font-size="12.821" transform="rotate(30 213.768 20.01)">
      <tspan x="189.519" y="25.01">Currency</tspan>
    </text>
    <text fill="#726BFF" fill-opacity=".7" font-size="12.5">
      <tspan x="143.736" y="168.892">Media</tspan>
    </text>
    <text fill="#726BFF" fill-opacity=".7" font-size="11.859" transform="rotate(-60 24.795 122.225)">
      <tspan x="-.257" y="126.725">Insurance</tspan>
    </text>
    <text fill="#726BFF" fill-opacity=".4" font-size="10.897">
      <tspan x="221.14" y="17.222">Computing</tspan>
    </text>
    <text fill="#726BFF" fill-opacity=".4" font-size="9.615" transform="rotate(60 286.116 78.918)">
      <tspan x="269.254" y="82.918">Protocol</tspan>
    </text>
    <text fill="#726BFF" fill-opacity=".4" font-size="7.372" transform="rotate(30 207.65 45.475)">
      <tspan x="191.269" y="47.975">Compound</tspan>
    </text>
    <text fill="#726BFF" fill-opacity=".2" font-size="7.372">
      <tspan x="117.238" y="9.689">E-Commerce</tspan>
    </text>
    <text fill="#726BFF" fill-opacity=".4" font-size="7.372" transform="rotate(-30 261.611 173.305)">
      <tspan x="246.194" y="175.805">Electricity</tspan>
    </text>
  </g>
</svg>
